<?xml version="1.0" encoding="UTF-8"?>
<svg width="37px" height="19px" viewBox="0 0 37 19" version="1.1" xmlns="http://www.w3.org/2000/svg" xmlns:xlink="http://www.w3.org/1999/xlink">
    <!-- Generator: Sketch 46.2 (44496) - http://www.bohemiancoding.com/sketch -->
    <title>mit_logo</title>
    <desc>Created with Sketch.</desc>
    <defs></defs>
    <g id="website" stroke="none" stroke-width="1" fill="none" fill-rule="evenodd">
        <g id="V2.1" transform="translate(-1100.000000, -23.000000)" fill-rule="nonzero" fill="#000000">
            <g id="mit_logo" transform="translate(1100.000000, 23.000000)">
                <path d="M30.4344813,19 L26.4174717,19 L26.4174717,6.06858766 L30.4422512,6.06858766 L30.4422512,19 L30.4344813,19 Z M17.202436,19 L13.1776564,19 L13.1776564,0 L17.202436,0 L17.202436,19 L17.202436,19 Z M4.01700966,19 L0,19 L0,0 L4.0247795,0 L4.0247795,19 L4.01700966,19 Z M10.5825283,12.9314123 L6.55774885,12.9314123 L6.55774885,0 L10.5825283,0 L10.5825283,12.9314123 L10.5825283,12.9314123 Z M23.7679546,3.79383117 L19.7431751,3.79383117 L19.7431751,0.00771103896 L23.7679546,0.00771103896 L23.7679546,3.79383117 L23.7679546,3.79383117 Z M26.4174717,0 L37,0 L37,3.78612013 L26.4174717,3.78612013 L26.4174717,0 L26.4174717,0 Z" id="Shape"></path>
                <polygon id="Path" fill-opacity="0.5" points="20 6 24 6 24 19 20 19"></polygon>
            </g>
        </g>
    </g>
</svg>