<?xml version="1.0" encoding="UTF-8"?>
<svg width="205px" height="13px" viewBox="0 0 205 13" version="1.1" xmlns="http://www.w3.org/2000/svg" xmlns:xlink="http://www.w3.org/1999/xlink">
    <!-- Generator: Sketch 46.2 (44496) - http://www.bohemiancoding.com/sketch -->
    <title>senseable_logo</title>
    <desc>Created with Sketch.</desc>
    <defs></defs>
    <g id="website" stroke="none" stroke-width="1" fill="none" fill-rule="evenodd">
        <g id="V2.1" transform="translate(-30.000000, -26.000000)" fill-rule="nonzero" fill="#000000">
            <g id="senseable_logo" transform="translate(30.000000, 26.000000)">
                <g id="Group" transform="translate(182.000000, 0.000000)">
                    <path d="M0.5,1.8 C0.5,0.8 1.2,0.2 2.2,0.2 C3.3,0.2 3.9,0.9 3.9,1.8 C3.9,2.7 3.2,3.4 2.1,3.4 C1.2,3.4 0.5,2.7 0.5,1.8 Z M0.5,11 C0.5,10 1.2,9.4 2.2,9.4 C3.3,9.4 3.9,10.1 3.9,11 C3.9,11.9 3.2,12.6 2.1,12.6 C1.2,12.7 0.5,12 0.5,11 Z" id="Shape"></path>
                    <path d="M6.6,11 C6.6,10.1 7.3,9.4 8.4,9.4 C9.4,9.4 10.1,10.1 10.1,11 C10.1,11.9 9.4,12.6 8.3,12.6 C7.3,12.7 6.6,12 6.6,11 Z" id="Shape"></path>
                    <path d="M12.7,1.8 C12.7,0.8 13.4,0.2 14.4,0.2 C15.5,0.2 16.1,0.9 16.1,1.8 C16.1,2.7 15.4,3.4 14.3,3.4 C13.4,3.4 12.7,2.7 12.7,1.8 Z M12.7,11 C12.7,10 13.4,9.4 14.4,9.4 C15.5,9.4 16.1,10.1 16.1,11 C16.1,11.9 15.4,12.6 14.3,12.6 C13.4,12.7 12.7,12 12.7,11 Z" id="Shape"></path>
                    <path d="M18.7,1.8 C18.7,0.8 19.4,0.2 20.4,0.2 C21.5,0.2 22.1,0.9 22.1,1.8 C22.1,2.7 21.4,3.4 20.3,3.4 C19.4,3.4 18.7,2.7 18.7,1.8 Z M18.7,11 C18.7,10 19.4,9.4 20.4,9.4 C21.5,9.4 22.1,10.1 22.1,11 C22.1,11.9 21.4,12.6 20.3,12.6 C19.4,12.7 18.7,12 18.7,11 Z" id="Shape"></path>
                </g>
                <g id="Group">
                    <path d="M0.6,8.8 L3.2,8.8 C3.3,9.9 3.8,10.8 5.5,10.8 C6.7,10.8 7.5,10.1 7.5,9.2 C7.5,8.2 7,7.9 5.2,7.6 C2.2,7.2 1,6.3 1,3.9 C1,1.9 2.7,0.3 5.4,0.3 C8.1,0.3 9.7,1.5 9.9,3.9 L7.3,3.9 C7.1,2.8 6.5,2.3 5.3,2.3 C4.1,2.3 3.5,2.9 3.5,3.7 C3.5,4.6 3.9,5 5.7,5.2 C8.6,5.6 10.1,6.4 10.1,8.8 C10.1,10.9 8.4,12.6 5.5,12.6 C2.3,12.7 0.8,11.2 0.6,8.8 Z" id="Shape"></path>
                    <polygon id="Shape" points="12.1 0.5 19.9 0.5 19.9 2.6 14.8 2.6 14.8 5.4 18.9 5.4 18.9 7.4 14.8 7.4 14.8 10.4 20.2 10.4 20.2 12.5 12.1 12.5"></polygon>
                    <polygon id="Shape" points="22 0.5 25.1 0.5 29.7 8.4 29.7 0.5 32.1 0.5 32.1 12.5 29.4 12.5 24.4 4 24.4 12.5 22 12.5"></polygon>
                    <path d="M34,8.8 L36.6,8.8 C36.7,9.9 37.2,10.8 38.9,10.8 C40.1,10.8 40.9,10.1 40.9,9.2 C40.9,8.2 40.4,7.9 38.6,7.6 C35.5,7.2 34.3,6.3 34.3,4 C34.3,2 36,0.4 38.7,0.4 C41.4,0.4 43,1.6 43.2,4 L40.7,4 C40.5,2.9 39.9,2.4 38.7,2.4 C37.5,2.4 36.9,3 36.9,3.8 C36.9,4.7 37.3,5.1 39.1,5.3 C42,5.7 43.5,6.5 43.5,8.9 C43.5,11 41.8,12.7 38.9,12.7 C35.6,12.7 34.1,11.2 34,8.8 Z" id="Shape"></path>
                    <polygon id="Shape" points="45.4 0.5 53.2 0.5 53.2 2.6 48.1 2.6 48.1 5.4 52.2 5.4 52.2 7.4 48.1 7.4 48.1 10.4 53.5 10.4 53.5 12.5 45.4 12.5 45.4 0.5"></polygon>
                    <path d="M58.4,0.5 L61.9,0.5 L65.8,12.5 L63,12.5 L62.2,9.8 L57.9,9.8 L57,12.5 L54.5,12.5 L58.4,0.5 Z M58.4,7.9 L61.6,7.9 L60,2.8 L58.4,7.9 Z" id="Shape"></path>
                    <path d="M67.4,0.5 L72.1,0.5 C74.7,0.5 76.1,1.6 76.1,3.6 L76.1,3.7 C76.1,5 75.5,5.9 74.2,6.3 C75.8,6.6 76.6,7.5 76.6,9.1 L76.6,9.2 C76.6,11.4 75.2,12.5 72.4,12.5 L67.5,12.5 L67.4,0.5 L67.4,0.5 Z M71.7,5.5 C73,5.5 73.5,5 73.5,4 L73.5,3.9 C73.5,2.9 72.9,2.4 71.7,2.4 L70.1,2.4 L70.1,5.5 L71.7,5.5 Z M71.9,10.6 C73.2,10.6 73.8,10 73.8,8.9 L73.8,8.9 C73.8,7.8 73.2,7.2 71.7,7.2 L70,7.2 L70,10.6 L71.9,10.6 L71.9,10.6 Z" id="Shape"></path>
                    <polygon id="Shape" points="78.5 0.5 81.2 0.5 81.2 10.3 86.1 10.3 86.1 12.4 78.5 12.4 78.5 0.5"></polygon>
                    <path d="M87.8,0.5 L95.6,0.5 L95.6,2.6 L90.5,2.6 L90.5,5.4 L94.6,5.4 L94.6,7.4 L90.5,7.4 L90.5,10.4 L95.9,10.4 L95.9,12.5 L87.8,12.5 C87.8,12.5 87.8,0.5 87.8,0.5 Z" id="Shape"></path>
                    <path d="M100.9,6.6 L100.9,6.6 C100.9,2.9 103.4,0.4 106.8,0.4 C109.7,0.4 111.8,1.8 112.1,4.8 L109.3,4.8 C109.1,3.4 108.3,2.6 106.8,2.6 C104.9,2.6 103.7,4.1 103.7,6.6 L103.7,6.7 C103.7,9.2 104.8,10.6 106.8,10.6 C108.3,10.6 109.3,9.8 109.5,8.3 L112.2,8.3 C111.9,11.3 109.8,12.8 106.8,12.8 C103,12.7 100.9,10.3 100.9,6.6 Z" id="Shape"></path>
                    <polygon id="Shape" points="114.1 0.5 116.8 0.5 116.8 12.5 114.1 12.5"></polygon>
                    <polygon id="Shape" points="121.8 2.7 118.6 2.7 118.6 0.5 127.8 0.5 127.8 2.6 124.6 2.6 124.6 12.5 121.9 12.5 121.9 2.7"></polygon>
                    <polygon id="Shape" points="132.5 7.4 128.5 0.6 131.5 0.6 133.9 5.2 136.3 0.6 138.9 0.6 135.2 7.4 135.2 12.6 132.5 12.6 132.5 7.4"></polygon>
                    <polygon id="Shape" points="144.2 0.5 146.9 0.5 146.9 10.3 151.8 10.3 151.8 12.4 144.2 12.4"></polygon>
                    <path d="M156.6,0.5 L160.1,0.5 L164,12.5 L161.2,12.5 L160.4,9.8 L156.1,9.8 L155.3,12.5 L152.8,12.5 L156.6,0.5 Z M156.7,7.9 L159.9,7.9 L158.3,2.7 L156.7,7.9 Z" id="Shape"></path>
                    <path d="M165.7,0.5 L170.4,0.5 C173,0.5 174.4,1.6 174.4,3.6 L174.4,3.7 C174.4,5 173.8,5.9 172.5,6.3 C174.1,6.6 174.9,7.5 174.9,9.1 L174.9,9.2 C174.9,11.4 173.5,12.5 170.7,12.5 L165.8,12.5 L165.8,0.5 L165.7,0.5 L165.7,0.5 Z M170,5.5 C171.3,5.5 171.8,5 171.8,4 L171.8,3.9 C171.8,2.9 171.2,2.4 170,2.4 L168.4,2.4 L168.4,5.5 L170,5.5 Z M170.2,10.6 C171.5,10.6 172.1,10 172.1,8.9 L172.1,8.9 C172.1,7.8 171.5,7.2 170,7.2 L168.3,7.2 L168.3,10.6 L170.2,10.6 L170.2,10.6 Z" id="Shape"></path>
                </g>
            </g>
        </g>
    </g>
</svg>